# xmcd
#
# Track frame offsets: 
#        150
#        5690
#        25483
#        49326
#        72411
#        91673
#        112166
#        126917
#        150741
#        170605
#        197515
#        220110
#        242893
#
# Disc length: 3456 seconds
#
# Revision: 0
# Processed by: cddbd v1.5.2PL0 Copyright (c) Steve Scherf et al.
# Submitted via: ExactAudioCopy v1.0b3
#
DISCID=b90d7e0d
DTITLE=Powerworld - Powerworld
DYEAR=2008
DGENRE=Metal
TTITLE0=The Dark
TTITLE1=Creatures
TTITLE2=Lake Of Eternity
TTITLE3=Fight Fire With Fire
TTITLE4=Sign In The Sand
TTITLE5=I Reach The Light
TTITLE6=Dancing With Angels
TTITLE7=Your World Is Not Mine
TTITLE8=Died In Your Arms
TTITLE9=Breaking The Silence
TTITLE10=Don't Walk On Broken Glass
TTITLE11=Our Melody
TTITLE12=Wild And The Young
EXTD=
EXTT0=
EXTT1=
EXTT2=
EXTT3=
EXTT4=
EXTT5=
EXTT6=
EXTT7=
EXTT8=
EXTT9=
EXTT10=
EXTT11=
EXTT12=
PLAYORDER=
